<svg width="107" height="27" viewBox="0 0 107 27" fill="none" xmlns="http://www.w3.org/2000/svg">
<path d="M0.988 26V0.799998H6.82V21.248H19.456V26H0.988ZM34.5678 26.432C32.5758 26.432 30.7278 26.108 29.0238 25.46C27.3438 24.812 25.8798 23.9 24.6318 22.724C23.4078 21.548 22.4478 20.168 21.7518 18.584C21.0798 17 20.7438 15.272 20.7438 13.4C20.7438 11.528 21.0798 9.8 21.7518 8.216C22.4478 6.632 23.4198 5.252 24.6678 4.076C25.9158 2.9 27.3798 1.988 29.0598 1.34C30.7398 0.691999 32.5638 0.368 34.5318 0.368C36.5238 0.368 38.3478 0.691999 40.0038 1.34C41.6838 1.988 43.1358 2.9 44.3598 4.076C45.6078 5.252 46.5798 6.632 47.2758 8.216C47.9718 9.776 48.3198 11.504 48.3198 13.4C48.3198 15.272 47.9718 17.012 47.2758 18.62C46.5798 20.204 45.6078 21.584 44.3598 22.76C43.1358 23.912 41.6838 24.812 40.0038 25.46C38.3478 26.108 36.5358 26.432 34.5678 26.432ZM34.5318 21.464C35.6598 21.464 36.6918 21.272 37.6278 20.888C38.5878 20.504 39.4278 19.952 40.1478 19.232C40.8678 18.512 41.4198 17.66 41.8038 16.676C42.2118 15.692 42.4158 14.6 42.4158 13.4C42.4158 12.2 42.2118 11.108 41.8038 10.124C41.4198 9.14 40.8678 8.288 40.1478 7.568C39.4518 6.848 38.6238 6.296 37.6638 5.912C36.7038 5.528 35.6598 5.336 34.5318 5.336C33.4038 5.336 32.3598 5.528 31.3998 5.912C30.4638 6.296 29.6358 6.848 28.9158 7.568C28.1958 8.288 27.6318 9.14 27.2238 10.124C26.8398 11.108 26.6478 12.2 26.6478 13.4C26.6478 14.576 26.8398 15.668 27.2238 16.676C27.6318 17.66 28.1838 18.512 28.8798 19.232C29.5998 19.952 30.4398 20.504 31.3998 20.888C32.3598 21.272 33.4038 21.464 34.5318 21.464ZM64.8708 26.432C62.8788 26.432 61.0428 26.12 59.3628 25.496C57.7068 24.848 56.2548 23.936 55.0068 22.76C53.7828 21.584 52.8228 20.204 52.1268 18.62C51.4548 17.036 51.1188 15.296 51.1188 13.4C51.1188 11.504 51.4548 9.764 52.1268 8.18C52.8228 6.596 53.7948 5.216 55.0428 4.04C56.2908 2.864 57.7548 1.964 59.4348 1.34C61.1148 0.691999 62.9628 0.368 64.9788 0.368C67.2108 0.368 69.2148 0.739999 70.9908 1.484C72.7908 2.228 74.3028 3.308 75.5268 4.724L71.7828 8.18C70.8708 7.22 69.8748 6.512 68.7948 6.056C67.7148 5.576 66.5388 5.336 65.2668 5.336C64.0428 5.336 62.9268 5.528 61.9188 5.912C60.9108 6.296 60.0348 6.848 59.2908 7.568C58.5708 8.288 58.0068 9.14 57.5988 10.124C57.2148 11.108 57.0228 12.2 57.0228 13.4C57.0228 14.576 57.2148 15.656 57.5988 16.64C58.0068 17.624 58.5708 18.488 59.2908 19.232C60.0348 19.952 60.8988 20.504 61.8828 20.888C62.8908 21.272 63.9948 21.464 65.1948 21.464C66.3468 21.464 67.4628 21.284 68.5428 20.924C69.6468 20.54 70.7148 19.904 71.7468 19.016L75.0588 23.228C73.6908 24.26 72.0948 25.052 70.2708 25.604C68.4708 26.156 66.6708 26.432 64.8708 26.432ZM69.7308 22.472V13.004H75.0588V23.228L69.7308 22.472ZM92.7163 26.432C90.7243 26.432 88.8763 26.108 87.1723 25.46C85.4923 24.812 84.0283 23.9 82.7803 22.724C81.5563 21.548 80.5963 20.168 79.9003 18.584C79.2283 17 78.8923 15.272 78.8923 13.4C78.8923 11.528 79.2283 9.8 79.9003 8.216C80.5963 6.632 81.5683 5.252 82.8163 4.076C84.0643 2.9 85.5283 1.988 87.2083 1.34C88.8883 0.691999 90.7123 0.368 92.6803 0.368C94.6723 0.368 96.4963 0.691999 98.1523 1.34C99.8323 1.988 101.284 2.9 102.508 4.076C103.756 5.252 104.728 6.632 105.424 8.216C106.12 9.776 106.468 11.504 106.468 13.4C106.468 15.272 106.12 17.012 105.424 18.62C104.728 20.204 103.756 21.584 102.508 22.76C101.284 23.912 99.8323 24.812 98.1523 25.46C96.4963 26.108 94.6843 26.432 92.7163 26.432ZM92.6803 21.464C93.8083 21.464 94.8403 21.272 95.7763 20.888C96.7363 20.504 97.5763 19.952 98.2963 19.232C99.0163 18.512 99.5683 17.66 99.9523 16.676C100.36 15.692 100.564 14.6 100.564 13.4C100.564 12.2 100.36 11.108 99.9523 10.124C99.5683 9.14 99.0163 8.288 98.2963 7.568C97.6003 6.848 96.7723 6.296 95.8123 5.912C94.8523 5.528 93.8083 5.336 92.6803 5.336C91.5523 5.336 90.5083 5.528 89.5483 5.912C88.6123 6.296 87.7843 6.848 87.0643 7.568C86.3443 8.288 85.7803 9.14 85.3723 10.124C84.9883 11.108 84.7963 12.2 84.7963 13.4C84.7963 14.576 84.9883 15.668 85.3723 16.676C85.7803 17.66 86.3323 18.512 87.0283 19.232C87.7483 19.952 88.5883 20.504 89.5483 20.888C90.5083 21.272 91.5523 21.464 92.6803 21.464Z" fill="white"/>
</svg>
